<svg width="846" height="855" viewBox="0 0 846 855" fill="none" xmlns="http://www.w3.org/2000/svg">
<path d="M728.033 6.96357C702.227 16.1828 679.3 32.9176 657.951 50.4123C622.28 79.6481 588.988 111.982 550.738 137.752C512.488 163.523 467.928 182.729 421.833 181.46C369.094 180.007 320.67 152.166 278.839 119.99C237.009 87.8151 198.867 50.3288 153.014 24.2161C131.773 12.116 108.521 2.47089 84.1255 1.03457C59.7216 -0.401756 33.9573 7.30595 17.5322 25.4186C-8.13195 53.7192 -3.87545 100.542 18.9928 131.147C41.8694 161.752 78.8091 178.637 115.715 188.475C171 203.205 236.199 201.41 277.905 246.545C307.667 278.762 327.739 342.787 289.022 376.549C261.221 400.791 227.311 390.929 200.812 371.004C175.832 352.224 152.839 327.146 121.933 322.512C95.9102 318.612 68.1428 331.99 54.956 354.77C41.7692 377.551 43.9893 408.298 60.3142 428.95C79.5101 453.225 112.652 460.95 143.383 464.49C174.121 468.031 206.621 469.442 232.786 485.96C265.936 506.887 281.326 548.189 282.562 587.388C283.797 626.586 273.264 665.049 265.577 703.504C257.165 745.583 241.749 807.629 284.865 836.756C331.002 867.921 387.672 846.694 402.778 793.5C410.54 766.16 407.494 736.865 401.193 709.149C394.891 681.433 385.419 654.469 380.277 626.511C371.364 577.985 375.963 527.037 393.431 480.891C403.079 455.397 429.544 443.054 446.846 469.409C459.832 489.2 463.58 515.021 467.227 537.96C473.261 575.855 471.667 614.753 462.628 652.031C453.856 688.214 438.767 723.312 437.415 760.957C436.013 799.947 455.584 844.022 493.45 853.333C527.928 861.809 564.016 836.823 578.388 804.347C592.76 771.863 589.889 734.385 582.561 699.63C575.233 664.874 563.707 630.761 561.504 595.312C559.301 559.864 568.106 521.392 594.863 498.043C622.263 474.135 661.39 471.163 697.395 466.177C733.4 461.192 773.227 450.085 790.912 418.311C802.397 397.676 801.395 370.687 788.434 350.954C775.464 331.221 751.102 319.614 727.616 321.977C695.058 325.259 670.537 351.597 644.13 370.929C623.841 385.785 588.712 395.706 563.924 384.482C515.2 362.42 533.294 283.004 559.877 250.52C598.235 203.656 667.048 203.447 721.206 190.195C759.206 180.892 797.673 165.552 822.87 135.615C848.066 105.677 855.503 58.0532 830.882 27.6399C810.451 2.39572 773.536 -4.65224 741.946 2.82999C737.214 3.94898 732.582 5.33518 728.033 6.96357Z" fill="#4814CC"/>
</svg>
