<svg width="900" height="909" viewBox="0 0 900 909" fill="none" xmlns="http://www.w3.org/2000/svg">
<path d="M774.503 7.40338C747.05 17.2048 722.66 34.9966 699.948 53.5962C662 84.6785 626.583 119.055 585.891 146.452C545.2 173.85 497.796 194.27 448.758 192.921C392.653 191.376 341.138 161.776 296.638 127.569C252.137 93.3613 211.561 53.5074 162.781 25.7456C140.184 12.8812 115.448 2.62694 89.4952 1.09991C63.5336 -0.42713 36.1248 7.76738 18.6513 27.024C-8.65101 57.112 -4.12282 106.892 20.2051 139.43C44.5419 171.968 83.8395 189.92 123.102 200.378C181.915 216.039 251.276 214.13 295.643 262.117C327.305 296.368 348.658 364.437 307.47 400.331C277.894 426.104 241.82 415.619 213.63 394.436C187.056 374.469 162.594 347.808 129.716 342.881C102.032 338.735 72.4924 352.958 58.4639 377.177C44.4354 401.397 46.7971 434.086 64.164 456.041C84.5853 481.85 119.843 490.062 152.535 493.827C185.235 497.591 219.809 499.091 247.644 516.652C282.911 538.901 299.283 582.812 300.598 624.486C301.912 666.16 290.707 707.052 282.529 747.936C273.579 792.673 257.18 858.637 303.048 889.604C352.13 922.737 412.417 900.169 428.488 843.616C436.745 814.549 433.504 783.404 426.801 753.938C420.097 724.471 410.02 695.804 404.551 666.08C395.068 614.489 399.96 560.324 418.544 511.263C428.807 484.158 456.962 471.037 475.368 499.056C489.183 520.097 493.17 547.548 497.05 571.936C503.469 612.225 501.773 653.579 492.158 693.211C482.826 731.68 466.773 768.995 465.335 809.018C463.843 850.47 484.664 897.328 524.947 907.227C561.625 916.239 600.017 889.675 615.307 855.148C630.596 820.612 627.542 780.767 619.746 743.817C611.95 706.866 599.689 670.599 597.345 632.911C595.001 595.224 604.368 554.322 632.833 529.499C661.982 504.081 703.606 500.92 741.909 495.62C780.212 490.32 822.582 478.512 841.396 444.731C853.613 422.793 852.548 394.099 838.759 373.12C824.962 352.141 799.044 339.8 774.059 342.313C739.423 345.802 713.337 373.803 685.245 394.356C663.66 410.15 626.29 420.698 599.92 408.765C548.085 385.309 567.334 300.878 595.613 266.343C636.42 216.519 709.626 216.297 767.241 202.207C807.666 192.317 848.588 176.008 875.393 144.18C902.198 112.352 910.109 61.7197 883.917 29.3856C862.181 2.54703 822.911 -4.94607 789.304 3.00872C784.27 4.19839 779.342 5.67214 774.503 7.40338Z" fill="#F2E7D7"/>
</svg>
