<svg width="1738" height="1755" viewBox="0 0 1738 1755" fill="none" xmlns="http://www.w3.org/2000/svg">
<path d="M1495.65 14.2936C1442.64 33.2172 1395.54 67.5676 1351.68 103.478C1278.4 163.488 1210 229.858 1131.42 282.755C1052.84 335.652 961.299 375.076 866.602 372.47C758.256 369.488 658.776 312.34 572.84 246.296C486.905 180.252 408.548 103.306 314.348 49.7068C270.711 24.8696 222.943 5.07182 172.825 2.12358C122.69 -0.824656 69.7609 14.9964 36.0177 52.1751C-16.7061 110.266 -7.96162 206.375 39.0183 269.196C86.0153 332.018 161.903 366.677 237.723 386.869C351.297 417.105 485.242 413.42 570.92 506.067C632.062 572.196 673.298 703.616 593.758 772.917C536.645 822.677 466.981 802.433 412.543 761.535C361.225 722.985 313.988 671.511 250.496 661.998C197.035 653.993 139.991 681.453 112.9 728.213C85.8096 774.974 90.3704 838.086 123.908 880.476C163.344 930.304 231.43 946.16 294.561 953.428C357.71 960.695 424.476 963.592 478.229 997.497C546.333 1040.45 577.95 1125.23 580.487 1205.69C583.025 1286.15 561.387 1365.1 545.595 1444.04C528.312 1530.41 496.644 1657.77 585.22 1717.55C680.002 1781.52 796.423 1737.95 827.458 1628.76C843.403 1572.64 837.145 1512.51 824.2 1455.62C811.255 1398.73 791.794 1343.38 781.232 1286C762.92 1186.39 772.368 1081.81 808.254 987.092C828.075 934.761 882.444 909.427 917.988 963.524C944.667 1004.15 952.366 1057.15 959.858 1104.23C972.255 1182.02 968.98 1261.86 950.411 1338.38C932.391 1412.65 901.391 1484.69 898.613 1561.96C895.733 1642 935.94 1732.47 1013.73 1751.58C1084.56 1768.98 1158.7 1717.69 1188.23 1651.03C1217.75 1584.35 1211.85 1507.42 1196.8 1436.08C1181.74 1364.74 1158.07 1294.72 1153.54 1221.96C1149.01 1149.19 1167.1 1070.23 1222.07 1022.3C1278.36 973.225 1358.74 967.123 1432.71 956.89C1506.68 946.657 1588.5 923.859 1624.83 858.638C1648.42 816.283 1646.36 760.884 1619.74 720.38C1593.09 679.876 1543.04 656.05 1494.79 660.901C1427.91 667.637 1377.53 721.699 1323.28 761.381C1281.6 791.874 1209.43 812.238 1158.51 789.2C1058.41 743.914 1095.59 580.904 1150.2 514.226C1229 418.031 1370.37 417.602 1481.63 390.4C1559.69 371.305 1638.72 339.817 1690.48 278.367C1742.25 216.917 1757.52 119.162 1706.94 56.7345C1664.97 4.91753 1589.13 -9.54934 1524.23 5.80892C1514.51 8.10581 1505 10.9512 1495.65 14.2936Z" fill="white"/>
</svg>
